# xmcd
#
# Track frame offsets: 
#        150
#        15376
#        28959
#        44469
#        58045
#        72108
#        84716
#        109696
#        125524
#        141946
#        151059
#        162427
#        170529
#        197351
#        205554
#        213800
#        226720
#        250343
#
# Disc length: 3563 seconds
#
# Revision: 0
# Processed by: cddbd v1.5.1PL0 Copyright (c) Steve Scherf et al.
# Submitted via: ExactAudioCopy v0.95a5
#
DISCID=ec0de912
DTITLE=Blues Man - Field of Blues
DYEAR=2004
DGENRE=Blues
TTITLE0=Field of Blues
TTITLE1=Stompin' Bloodhound Blues
TTITLE2=Boogie Child (Tribute to The Hook)
TTITLE3=Fool For Your Heart (I)
TTITLE4=Mobile Blues
TTITLE5=Crawlin' For Your Love
TTITLE6=Sunday Morning Jammin'
TTITLE7=Divorce Blues
TTITLE8=Fool For Your Heart (II)
TTITLE9=Amazing Grace
TTITLE10=By and By I Will Meet the King
TTITLE11=Wade In The Water
TTITLE12=John The Revalator
TTITLE13=Dan's Stumble
TTITLE14=Little More Faith and Grace
TTITLE15=Bordertown Blues
TTITLE16=Swamp Snake Stew
TTITLE17=Waiting Too Long
EXTD=
EXTT0=
EXTT1=
EXTT2=
EXTT3=
EXTT4=
EXTT5=
EXTT6=
EXTT7=
EXTT8=
EXTT9=
EXTT10=
EXTT11=
EXTT12=
EXTT13=
EXTT14=
EXTT15=
EXTT16=
EXTT17=
PLAYORDER=
